<?xml version="1.0" encoding="UTF-8"?>
<svg xmlns="http://www.w3.org/2000/svg" viewBox="0 0 1331 467" width="1331" height="467">
<path d="M1089.26 130.26C1089.26 150.65 1089.26 171.04 1089.26 191.43C1093.9 190.22 1097.98 186.83 1102.58 185.22C1115.21 180.78 1129.58 179.96 1142.73 182.25C1196.17 191.57 1215.37 261.78 1182.56 301.81C1166.51 321.39 1141.32 328.35 1116.85 325.39C1102.84 323.69 1091.91 317.4 1080.83 309.17C1077.74 312.51 1077.21 318.24 1075.09 322.31C1063.21 322.31 1051.32 322.31 1039.43 322.31C1039.43 258.3 1039.43 194.28 1039.43 130.26C1056.04 130.26 1072.65 130.26 1089.26 130.26ZM114.3 138.49C123.47 136.62 140.78 138.06 150.81 138.06C175.04 138.06 199.28 138.06 223.51 138.06C233.77 138.06 255.16 134.42 253.96 150.81C253.66 154.81 251.55 159.04 250.24 162.8C247.1 171.82 245.13 181.13 235.92 185.92C227.69 190.21 215.97 188.14 206.96 188.14C185.84 188.14 164.73 188.14 143.61 188.14C132.33 188.14 121.05 188.14 109.78 188.14C105.22 188.14 99.18 189.25 95.21 186.59C87.94 181.69 90.52 174.1 92.76 167.3C96.78 155.08 99.77 141.46 114.3 138.49ZM894.61 141.17C894.61 157.2 894.61 173.24 894.61 189.28C876.14 189.28 857.67 189.28 839.2 189.28C839.2 233.46 839.2 277.63 839.2 321.81C835.39 322.98 830.75 322.34 826.75 322.34C818.83 322.34 810.91 322.34 802.99 322.34C798.02 322.34 791.71 323.34 787.01 321.78C787.01 277.61 787.01 233.45 787.01 189.28C768.63 189.28 750.25 189.28 731.87 189.28C731.87 173.1 731.87 156.91 731.87 140.73C744.6 139.61 757.81 140.55 770.6 140.55C795.07 140.55 819.55 140.55 844.02 140.55C855.3 140.55 866.58 140.55 877.86 140.55C883.05 140.55 889.72 139.46 894.61 141.17ZM1017.61 322.32C1005.82 322.32 994.03 322.32 982.23 322.32C980.31 317.48 978.39 312.64 976.47 307.81C969.54 312.62 963.69 318.03 955.5 320.93C927.14 330.95 881.67 325.62 877.08 288.87C876.39 283.3 876.44 277.36 877.72 271.9C884.72 242.15 910.56 240.1 936.16 240.1C946.96 240.1 957.77 240.31 968.57 240.07C974.15 222.47 955.48 213.01 940.74 218.42C934.85 220.58 932.1 224.72 929.91 230.28C914.59 230.28 899.28 230.28 883.96 230.28C883.22 212.63 896.6 196.8 911.35 188.95C934.35 176.71 974.6 177.97 995.83 193.7C1023.12 213.93 1017.96 250.46 1017.94 280.38C1017.94 293.01 1019.34 310.26 1017.61 322.32ZM55.29 209.09C64.78 207.3 81.54 208.7 91.78 208.7C116.26 208.7 140.73 208.7 165.21 208.7C176.15 208.7 197.28 204.33 196.22 221.21C195.99 224.87 194.35 228.22 193.22 231.66C190.27 240.71 188.15 250.76 179.17 255.82C170.85 260.49 159.27 258.51 150.09 258.51C128.73 258.51 107.38 258.51 86.02 258.51C74.74 258.51 63.47 258.51 52.19 258.51C47.4 258.51 41.58 259.48 37.44 256.61C31.22 252.31 32.71 245.01 34.85 238.91C38.71 227.93 41.38 211.72 55.29 209.09ZM1114.06 222.71C1080.21 226.36 1078.13 277.72 1111.1 284.19C1114.69 284.9 1118.2 285.35 1121.86 284.89C1129.95 283.86 1137.77 280.22 1142.9 273.72C1155.3 257.99 1149.23 231.4 1130.16 224.26C1125.1 222.37 1119.38 222.14 1114.06 222.71ZM969.43 267.42C966.29 267.14 963.08 267.27 959.92 267.27C950.03 267.27 919.71 264.53 926.14 283.57C928.31 290 935.89 292.15 941.92 292.45C955.18 293.1 972.12 282.69 969.43 267.42ZM96.24 278.89C108.53 277.86 121.2 278.68 133.53 278.68C157.05 278.68 180.56 278.68 204.08 278.68C214 278.68 236.75 274.73 234.94 291.18C234.5 295.16 232.51 299.09 231.31 302.89C228.57 311.59 226.27 321.22 217.57 325.91C209.16 330.44 197.5 328.44 188.24 328.44C167.12 328.44 146.01 328.44 124.89 328.44C113.38 328.44 101.86 328.44 90.34 328.44C85.85 328.44 79.91 329.49 76.08 326.71C69.1 321.65 71.56 314.36 73.83 307.51C77.73 295.73 81.19 280.15 96.24 278.89Z" fill="#2dd4bf" fill-rule="evenodd" stroke="#2dd4bf" stroke-width="0.25" stroke-linejoin="round"/>
<path d="M220.48 203.36C223.22 213.8 220.59 220.02 217.14 229.8C214.59 237.08 212.73 244.72 209.71 251.82C207.78 256.36 204.47 259.66 202.11 263.82C213.32 265.05 225.18 264.04 236.47 264.04C242.68 264.04 248.84 263.41 254 267.53C263.3 274.97 260.34 285.34 257.25 294.97C251.96 311.47 248.31 332.02 230.92 340.01C218.65 345.65 200.88 343.16 187.52 343.16C157.77 343.16 128.01 343.16 98.26 343.16C89.14 343.16 80.02 343.16 70.91 343.16C65.06 343.16 59.33 343.77 54.07 340.75C47.86 337.18 45.51 330.36 45.85 323.57C46.13 317.84 48.99 312.16 50.77 306.75C54.54 295.27 57.06 283.02 65.42 273.9C62.46 271.87 55.86 273.1 52.19 273.1C42.26 273.1 21.5 275.5 13.79 269.49C5.25 262.84 6.86 253.13 9.77 244.16C14.9 228.37 18.39 207.4 33.85 198.37C41.25 194.03 48.91 193.99 57.23 193.99C60.35 193.99 63.49 194.32 66.37 193.28C62.63 182.8 67.5 172.8 70.96 162.83C75.37 150.17 77.82 137.63 89.38 129.33C100.5 121.34 115.62 123.72 128.49 123.72C156.57 123.72 184.64 123.72 212.72 123.72C225.91 123.72 239.11 123.72 252.31 123.72C258.68 123.72 265.88 122.7 271.54 126.21C280.94 132.05 280.2 142.51 277.26 151.62C272.06 167.68 268.29 189.81 252.32 198.71C241.44 204.78 231.82 201.5 220.48 203.36ZM114.3 138.49C99.77 141.46 96.78 155.08 92.76 167.3C90.52 174.1 87.94 181.69 95.21 186.59C99.18 189.25 105.22 188.14 109.78 188.14C121.05 188.14 132.33 188.14 143.61 188.14C164.73 188.14 185.84 188.14 206.96 188.14C215.97 188.14 227.69 190.21 235.92 185.92C245.13 181.13 247.1 171.82 250.24 162.8C251.55 159.04 253.66 154.81 253.96 150.81C255.16 134.42 233.77 138.06 223.51 138.06C199.28 138.06 175.04 138.06 150.81 138.06C140.78 138.06 123.47 136.62 114.3 138.49ZM459.62 202.17C461.81 200.34 463.46 197.95 465.6 196.03C471.62 190.58 479.16 186.37 486.96 184.16C494.99 181.89 503.08 180.73 511.45 181.17C517.99 181.51 524.16 182.6 530.29 184.85C535.33 186.69 540.14 189.04 544.43 192.3C570.47 212.07 565.63 248.81 565.63 277.5C565.63 291.85 566.95 307.58 565.44 321.75C560.96 323.45 554.43 322.34 549.6 322.34C538.68 322.34 527.06 323.45 516.24 322.13C514.72 314.18 515.83 305.06 515.83 296.94C515.83 280.86 515.86 264.78 515.83 248.71C515.79 234.59 510.29 221.95 494.18 222.31C478.3 222.66 473.91 236.02 473.93 249.43C473.95 265.26 473.93 281.1 473.93 296.94C473.93 305.14 475.02 314.29 473.47 322.32C457.34 322.32 441.21 322.32 425.07 322.32C424.4 314.66 424.87 306.79 424.87 299.1C424.87 281.83 425.21 264.53 424.86 247.27C424.62 234.81 418.89 222.75 404.91 222.3C389.23 221.8 383 234.16 383.03 247.99C383.06 264.06 383.03 280.14 383.03 296.22C383.03 304.77 383.87 313.87 382.7 322.33C366.18 322.33 349.65 322.33 333.13 322.33C333.13 276.58 333.13 230.84 333.13 185.09C345.08 185.09 357.03 185.09 368.98 185.09C370.64 189.32 372.3 193.55 373.96 197.77C376.32 196.75 378.08 194.31 380.16 192.64C383.78 189.74 388.01 187.11 392.34 185.41C409.42 178.69 430.12 179.52 445.85 189.38C451.41 192.86 454.88 197.92 459.62 202.17ZM620.71 185.08C626.9 202.36 633.92 219.42 640.72 236.47C642.59 241.15 646.1 253.95 649.66 256.6C657.66 232.76 665.66 208.92 673.66 185.09C691.37 185.09 709.09 185.09 726.8 185.09C724.49 195.01 719.09 205.04 715.18 214.49C708.08 231.69 701.07 248.97 694.3 266.3C686.18 287.08 677.83 307.82 669.24 328.4C663.88 341.24 659.08 354.79 647.85 363.85C635.34 373.93 617.39 374.3 602.15 374.33C596.52 374.34 590.46 374.92 584.92 373.96C584.92 360.28 584.92 346.61 584.92 332.93C596.66 331.24 613.15 336.54 621.54 325.31C622.95 323.43 625.05 320.24 625.01 317.81C624.96 315.03 622.45 311.56 621.35 309.03C618.1 301.55 614.5 294.2 611.3 286.7C601.26 263.19 590.5 239.89 579.82 216.66C576.4 209.24 573.14 201.75 569.76 194.31C568.4 191.31 566.63 188.3 566.05 185.08C584.27 185.08 602.49 185.08 620.71 185.08ZM55.29 209.09C41.38 211.72 38.71 227.93 34.85 238.91C32.71 245.01 31.22 252.31 37.44 256.61C41.58 259.48 47.4 258.51 52.19 258.51C63.47 258.51 74.74 258.51 86.02 258.51C107.38 258.51 128.73 258.51 150.09 258.51C159.27 258.51 170.85 260.49 179.17 255.82C188.15 250.76 190.27 240.71 193.22 231.66C194.35 228.22 195.99 224.87 196.22 221.21C197.28 204.33 176.15 208.7 165.21 208.7C140.73 208.7 116.26 208.7 91.78 208.7C81.54 208.7 64.78 207.3 55.29 209.09ZM96.24 278.89C81.19 280.15 77.73 295.73 73.83 307.51C71.56 314.36 69.1 321.65 76.08 326.71C79.91 329.49 85.85 328.44 90.34 328.44C101.86 328.44 113.38 328.44 124.89 328.44C146.01 328.44 167.12 328.44 188.24 328.44C197.5 328.44 209.16 330.44 217.57 325.91C226.27 321.22 228.57 311.59 231.31 302.89C232.51 299.09 234.5 295.16 234.94 291.18C236.75 274.73 214 278.68 204.08 278.68C180.56 278.68 157.05 278.68 133.53 278.68C121.2 278.68 108.53 277.86 96.24 278.89Z" fill="#24566d" fill-rule="evenodd" stroke="#24566d" stroke-width="0.25" stroke-linejoin="round"/>
</svg>